<?xml version="1.0" encoding="UTF-8"?>
<svg width="24px" height="25px" viewBox="0 0 24 25" version="1.1" xmlns="http://www.w3.org/2000/svg" xmlns:xlink="http://www.w3.org/1999/xlink">
    <title>计划ICON备份</title>
    <g id="课表" stroke="none" stroke-width="1" fill="none" fill-rule="evenodd">
        <g id="计划ICON备份" transform="translate(0.000000, 0.882353)">
            <g id="ICON" transform="translate(1.714286, 1.714286)" fill="#CCCCCC">
                <path d="M17.1428571,0 C19.0364049,0 20.5714286,1.53502371 20.5714286,3.42857143 L20.5714286,17.1428571 C20.5714286,19.0364049 19.0364049,20.5714286 17.1428571,20.5714286 L3.42857143,20.5714286 C1.53502371,20.5714286 0,19.0364049 0,17.1428571 L0,3.42857143 C0,1.53502371 1.53502371,0 3.42857143,0 L17.1428571,0 Z M14.2789091,6.54545455 C11.7205714,8.16204421 9.86493506,10.2033679 9.02758442,11.2261967 L6.9825974,9.57493491 L6.07792208,10.3247205 L9.60825974,14.025974 C10.2141818,12.4223864 12.1413506,9.28888956 14.4935065,7.06120299 L14.2789091,6.54545455 Z" id="形状结合"></path>
            </g>
            <rect id="矩形" x="0" y="0" width="24" height="24"></rect>
        </g>
    </g>
</svg>