<?xml version="1.0" encoding="UTF-8"?>
<svg width="24px" height="24px" viewBox="0 0 24 24" version="1.1" xmlns="http://www.w3.org/2000/svg" xmlns:xlink="http://www.w3.org/1999/xlink">
    <title>我的ICON</title>
    <g id="课表" stroke="none" stroke-width="1" fill="none" fill-rule="evenodd">
        <g id="我的ICON" transform="translate(0.000000, 0.000000)">
            <rect id="矩形" x="0" y="0" width="24" height="24"></rect>
            <path d="M6.5,13.5714286 L18.0714286,13.5714286 C20.5567099,13.5714286 22.5714286,15.5861472 22.5714286,18.0714286 L22.5714286,20.5714286 C22.5714286,21.6759981 21.6759981,22.5714286 20.5714286,22.5714286 L4,22.5714286 C2.8954305,22.5714286 2,21.6759981 2,20.5714286 L2,18.0714286 C2,15.5861472 4.01471863,13.5714286 6.5,13.5714286 Z M12.2857143,12.2857143 C15.1260359,12.2857143 17.4285714,9.98317871 17.4285714,7.14285714 C17.4285714,4.30253557 15.1260359,2 12.2857143,2 C9.44539272,2 7.14285714,4.30253557 7.14285714,7.14285714 C7.14285714,9.98317871 9.44539272,12.2857143 12.2857143,12.2857143 Z" id="形状结合" fill="#CCCCCC"></path>
        </g>
    </g>
</svg>