<svg t="1694503921902" class="icon" viewBox="0 0 1024 1024" version="1.1" xmlns="http://www.w3.org/2000/svg" p-id="7551" width="16" height="16"><path d="M512 207.04c-100.39 0-191.24 28.21-272.53 84.85S99.76 421.83 64 512c35.54 90.18 93.95 163.7 175.47 220.11 81.29 56.64 172.14 84.85 272.53 84.85s191.24-28.21 272.53-84.85S924.24 602.17 960 512c-35.54-90.18-93.95-163.7-175.47-220.11-81.29-56.64-172.14-84.85-272.53-84.85z m0 508.86c-36.87 0-70.85-9.1-101.95-27.54s-55.97-43.31-74.41-74.41C317.21 582.86 308.1 548.87 308.1 512s9.11-70.85 27.54-101.95c18.43-31.09 43.31-55.97 74.41-74.41 31.1-18.44 65.08-27.54 101.95-27.54 36.87 0 70.85 9.1 101.95 27.54 31.1 18.44 55.97 43.31 74.41 74.41 18.43 31.09 27.54 65.08 27.54 101.95s-9.11 70.85-27.54 101.95-43.31 55.97-74.41 74.41c-31.1 18.43-65.08 27.54-101.95 27.54z m0-325.84c-34.21 0-63.3 11.77-86.62 35.32-23.55 23.55-35.31 52.42-35.31 86.62s11.77 63.3 35.31 86.62c23.55 23.55 52.42 35.32 86.62 35.32s63.3-11.77 86.62-35.32c23.55-23.55 35.32-52.42 35.32-86.62s-11.77-63.3-35.32-86.62c-23.32-23.55-52.41-35.32-86.62-35.32z" p-id="7552"></path></svg>