<svg t="1694504093429" class="icon" viewBox="0 0 1024 1024" version="1.1" xmlns="http://www.w3.org/2000/svg" p-id="7766" width="16" height="16"><path d="M512.11 288.06c36.88 0 70.87 9.11 101.97 27.55 31.1 18.44 55.99 43.32 74.43 74.43 18.44 31.1 27.55 65.09 27.55 101.98 0 25.32-5.11 50.21-15.33 74.43l118.19 118.19c63.54-52.22 110.64-116.2 141.08-192.62-35.55-90.2-93.98-163.74-175.51-220.17-81.31-56.65-172.18-84.87-272.6-84.87-55.99 0-109.97 9.55-161.96 28.66l87.76 87.76c24.21-10.23 49.1-15.34 74.42-15.34zM105.99 177.42l91.53 93.53 19.11 17.11C146.65 344.04 95.77 412.03 64 492c35.55 90.2 93.98 163.74 175.51 220.17 81.31 56.65 172.18 84.87 272.6 84.87 62.21 0 121.3-11.33 177.29-34.21l137.3 135.3 51.54-51.54-720.71-720.72-51.54 51.55z m225.06 225.06l62.87 62.88c-2.44 8.88-3.78 17.77-3.78 26.66 0 34.21 11.78 63.32 35.32 86.64 23.55 23.32 52.43 35.33 86.65 35.33 8.89 0 17.77-1.33 26.66-3.78l62.87 62.88c-29.32 15.33-59.1 22.88-89.53 22.88-36.88 0-70.87-9.11-101.97-27.55-31.1-18.44-55.99-43.32-74.43-74.43-18.44-31.1-27.55-65.09-27.55-101.98 0-30.44 7.56-60.43 22.89-89.53z m173.51-32.44L634.3 497.79v-5.78c0-34.21-11.78-63.32-35.32-86.64-23.55-23.55-52.43-35.33-86.65-35.33h-7.77z" p-id="7767"></path></svg>